<?xml version="1.0" encoding="UTF-8"?> <svg xmlns="http://www.w3.org/2000/svg" width="205" height="36" viewBox="0 0 205 36" fill="none"><g clip-path="url(#clip0_160_3117)"><path d="M111.197 2.43396C111.864 2.43396 112.42 2.66037 112.92 3.16981C113.364 3.62264 113.642 4.24528 113.642 4.92453C113.642 5.60377 113.42 6.16981 112.92 6.62264C112.475 7.07547 111.92 7.35849 111.253 7.35849C110.586 7.35849 110.03 7.13207 109.53 6.62264C109.03 6.1132 108.808 5.54717 108.808 4.86792C108.808 4.18868 109.03 3.62264 109.53 3.16981C109.975 2.66037 110.53 2.43396 111.197 2.43396Z" fill="#237A8B"></path><path d="M126.646 0C127.368 0 128.035 0.283019 128.591 0.792453C129.147 1.30189 129.369 1.98113 129.369 2.77359C129.369 3.50943 129.091 4.18868 128.591 4.75472C128.035 5.32076 127.424 5.54717 126.701 5.54717C125.923 5.54717 125.312 5.26415 124.757 4.69811C124.201 4.13208 123.979 3.45283 123.979 2.71698C123.979 1.98113 124.256 1.30189 124.757 0.792453C125.257 0.283019 125.923 0 126.646 0Z" fill="#479472"></path><path d="M142.094 2.37735C142.76 2.37735 143.316 2.60377 143.816 3.1132C144.261 3.56603 144.539 4.18867 144.539 4.86792C144.539 5.54716 144.316 6.1132 143.816 6.56603C143.372 7.01886 142.816 7.30188 142.149 7.30188C141.482 7.30188 140.927 7.07546 140.427 6.56603C139.926 6.0566 139.704 5.49056 139.704 4.81131C139.704 4.13207 139.926 3.56603 140.427 3.1132C140.871 2.60377 141.427 2.37735 142.094 2.37735Z" fill="#6AAD58"></path><path d="M14.1705 18.283C15.0596 16.1321 17.338 14.6604 20.5056 14.6604C24.6734 14.6604 28.341 17.6604 28.341 22.8113V35.4906H23.6731V22.8679C23.6731 20.4906 22.0615 19.1321 20.2277 19.1321C18.116 19.1321 16.5045 20.3774 16.5045 23.434V35.4906H11.8365V23.434C11.8365 20.3774 10.225 19.1321 8.11331 19.1321C6.27948 19.1321 4.66793 20.4906 4.66793 22.8679V35.4906H0V22.8113C0 17.6604 3.61209 14.6604 7.83546 14.6604C10.9474 14.6604 13.2814 16.1321 14.1705 18.283Z" fill="#0061A4"></path><path d="M34.2871 23.2076H46.3459C45.4012 20.151 43.0117 18.566 40.2332 18.566C37.3991 18.6227 35.0651 20.2642 34.2871 23.2076ZM40.6777 32.0377C43.0673 32.0377 45.179 30.9057 46.7905 28.8679L50.736 30.9623C48.1242 34.0189 44.6233 35.8868 40.7889 35.9434C33.3424 35.9434 29.0635 30.6227 29.0635 25.2453C29.0635 19.8679 33.3424 14.5472 40.7889 14.5472C45.2345 14.5472 51.7919 18.0566 51.7919 25.9245V26.7736H34.2871C34.6205 29.8868 37.6214 32.0377 40.6777 32.0377Z" fill="#0061A4"></path><path d="M61.2941 14.6604C62.2944 14.6604 63.1835 14.9434 63.8504 15.3396L62.1832 19.7547C61.6831 19.3585 60.8495 19.1321 60.405 19.1321C58.7934 19.1321 57.3486 20.3207 57.3486 22.1321V35.4906H52.6807V15.2264H57.0707V17.3774C57.9043 15.7924 59.4603 14.6604 61.2941 14.6604Z" fill="#0061A4"></path><path d="M69.4082 15.2264H64.7402V35.4906H69.4082V15.2264Z" fill="#0061A4"></path><path d="M81.6329 18.8491C78.0208 18.8491 74.9644 21.7358 74.9644 25.3585C74.9644 28.9245 77.9652 31.8679 81.6329 31.8679C85.1894 31.8679 88.1902 28.9811 88.1902 25.3585C88.1902 21.7358 85.1894 18.9057 81.6329 18.8491ZM88.0235 9.22641H92.6915V35.4906H88.0235V33.0566C86.5787 34.8679 83.9669 36.0566 81.0772 36.0566C74.0753 36.0566 70.0742 30.6226 70.0742 25.3585C70.0742 20.3774 74.4087 14.6604 81.2995 14.6604C84.4114 14.6604 86.801 15.9623 88.0235 17.6604V9.22641Z" fill="#0061A4"></path><path d="M99.5273 15.2264H94.8594V35.4906H99.5273V15.2264Z" fill="#0061A4"></path><path d="M111.919 18.849C108.307 18.849 105.251 21.7358 105.251 25.3585C105.251 28.9245 108.251 31.8679 111.919 31.8679C115.476 31.8679 118.476 28.9811 118.476 25.3585C118.476 21.7358 115.476 18.9056 111.919 18.849ZM118.31 15.1698H122.978V35.4339H118.31V33C116.865 34.8113 114.253 36 111.363 36C104.361 36 100.36 30.566 100.36 25.3019C100.36 20.3207 104.695 14.6038 111.586 14.6038C114.698 14.6038 117.087 15.9056 118.31 17.6038V15.1698Z" fill="#0061A4"></path><path d="M136.37 14.6604C140.871 14.6604 144.65 18.2264 144.65 23.2641V35.4906H139.982V24.2264C139.982 20.6038 137.982 19.1321 135.036 19.1321C132.147 19.1321 129.924 20.9434 129.924 24.1698V35.4906H125.256V15.2264H129.924V17.7736C131.146 15.9057 133.48 14.6604 136.37 14.6604Z" fill="#0061A4"></path><path d="M146.817 35.4906L146.762 8.8302H151.485V35.4906H146.817Z" fill="#8BC53F"></path><path d="M158.487 15.2264H153.819V35.4906H158.487V15.2264Z" fill="#8BC53F"></path><path d="M171.824 14.6604C176.325 14.6604 180.104 18.2264 180.104 23.2641V35.4906H175.436V24.2264C175.436 20.6038 173.436 19.1321 170.49 19.1321C167.601 19.1321 165.378 20.9434 165.378 24.1698V35.4906H160.71V15.2264H165.378V17.7736C166.656 15.9057 168.99 14.6604 171.824 14.6604Z" fill="#8BC53F"></path><path d="M189.662 27.0566H186.995V35.4906H182.327V9.22641H186.995V22.9245H189.218L194.775 15.2264H200.388L193.219 24.7924L200.777 35.4906H195.22L189.662 27.0566Z" fill="#8BC53F"></path><path d="M202.111 17.4906H202.388C202.722 17.4906 202.944 17.3774 202.944 17.0943C202.944 16.8679 202.777 16.6981 202.444 16.6981C202.277 16.6981 202.166 16.6981 202.111 16.7547V17.4906ZM202.055 18.9057H201.499V16.4151C201.722 16.3585 202.055 16.3585 202.444 16.3585C202.888 16.3585 203.111 16.4151 203.333 16.5283C203.444 16.6415 203.555 16.8113 203.555 17.0943C203.555 17.3774 203.333 17.6038 203.055 17.6604V17.717C203.277 17.8302 203.444 18 203.5 18.3396C203.555 18.7359 203.611 18.9057 203.666 18.9623H203.055C203 18.8491 202.944 18.6226 202.833 18.3396C202.777 18.0566 202.611 17.9434 202.333 17.9434H202.055V18.9057ZM200.555 17.6038C200.555 18.7359 201.388 19.6415 202.5 19.6415C203.611 19.6415 204.389 18.7359 204.389 17.6604C204.389 16.5283 203.611 15.6226 202.5 15.6226C201.388 15.6226 200.555 16.5283 200.555 17.6038ZM205 17.6038C205 19.0189 203.889 20.1509 202.444 20.1509C200.999 20.1509 199.888 19.0189 199.888 17.6038C199.888 16.1887 200.999 15.0566 202.444 15.0566C203.889 15.0566 205 16.1887 205 17.6038Z" fill="#8BC53F"></path><path d="M99.4154 11.4906C99.4154 12.7358 98.4151 13.7547 97.1926 13.7547C95.97 13.7547 94.9697 12.7358 94.9697 11.4906C94.9697 10.2453 95.97 9.22641 97.1926 9.22641C98.4151 9.22641 99.4154 10.2453 99.4154 11.4906Z" fill="#0061A4"></path><path d="M158.376 11.4906C158.376 12.7358 157.376 13.7547 156.153 13.7547C154.931 13.7547 153.931 12.7358 153.931 11.4906C153.931 10.2453 154.931 9.22641 156.153 9.22641C157.376 9.22641 158.376 10.2453 158.376 11.4906Z" fill="#8BC53F"></path><path d="M69.2962 11.4906C69.2962 12.7358 68.296 13.7547 67.0734 13.7547C65.8509 13.7547 64.8506 12.7358 64.8506 11.4906C64.8506 10.2453 65.8509 9.22641 67.0734 9.22641C68.296 9.22641 69.2962 10.2453 69.2962 11.4906Z" fill="#0061A4"></path></g><defs><clipPath id="clip0_160_3117"><rect width="205" height="36" fill="white"></rect></clipPath></defs></svg> 