<svg width="58" height="64" viewBox="0 0 58 64" fill="none" xmlns="http://www.w3.org/2000/svg">
<path d="M55.9418 14.7649C53.5574 11.0306 48.43 9.47935 41.5213 10.3697C41.2773 10.3983 41.0187 10.4415 40.7746 10.4702C40.6742 10.2407 40.5737 10.0107 40.4587 9.78119C37.4858 3.47565 33.421 0 28.9972 0C24.5734 0 20.4946 3.47565 17.5357 9.78119C17.4353 10.0107 17.3203 10.2407 17.2198 10.4702C16.9612 10.4275 16.7171 10.3983 16.4731 10.3697C9.5504 9.46477 4.43707 11.0306 2.05264 14.7649C-0.331221 18.4992 0.400938 23.7988 4.10662 29.6875C4.59528 30.4634 5.12659 31.2388 5.7011 32.0001C5.12659 32.7755 4.59528 33.5368 4.10662 34.3122C0.400938 40.2009 -0.331221 45.515 2.05264 49.2353C3.9916 52.2801 7.75507 53.8746 12.8246 53.8746C14.0399 53.8678 15.2534 53.7865 16.4585 53.6299C16.7026 53.6013 16.9612 53.5581 17.2052 53.5295C17.3062 53.7595 17.4067 53.989 17.5217 54.219C20.4946 60.524 24.5594 64.0002 28.9826 64.0002C33.4064 64.0002 37.4858 60.524 40.4441 54.219C40.5446 53.989 40.6596 53.7595 40.76 53.5295C41.0187 53.5727 41.2627 53.6013 41.5073 53.6299C42.7113 53.7932 43.9254 53.8746 45.1406 53.8746C50.2108 53.8746 53.9737 52.2801 55.9126 49.2353C58.297 45.501 57.5643 40.2009 53.8592 34.3122C53.3705 33.5368 52.8392 32.7614 52.2647 32.0001C52.8392 31.2242 53.3705 30.4634 53.8592 29.6875C57.6075 23.7848 58.3402 18.4846 55.9418 14.7649ZM20.1356 11.002C22.5626 5.83146 25.7942 2.87253 28.9972 2.87253C32.2002 2.87253 35.4318 5.83146 37.8589 11.002C37.8605 11.0127 37.8656 11.0228 37.8735 11.0306C34.8225 11.7645 31.8467 12.7788 28.9826 14.0608C26.1219 12.7727 23.145 11.7577 20.0924 11.0306C20.121 11.0306 20.121 11.016 20.1356 11.002ZM41.9382 32.0001C41.9388 34.2981 41.8142 36.595 41.5645 38.8796C39.7743 40.3243 37.9043 41.6669 35.9631 42.9011C33.7229 44.3397 31.3912 45.6306 28.9826 46.765C26.5791 45.6216 24.2474 44.3312 22.0027 42.9011C20.0638 41.6635 18.1938 40.3209 16.4013 38.8796C15.9031 34.3066 15.9031 29.6931 16.4013 25.1201C20.2725 22.0091 24.4954 19.3627 28.9826 17.2352C31.3867 18.378 33.7178 19.6684 35.9631 21.0985C37.9021 22.3362 39.772 23.6787 41.5645 25.1201C41.8142 27.4052 41.9388 29.7015 41.9382 32.0001ZM44.6811 27.8204C46.0877 29.1304 47.4117 30.5263 48.6454 32.0001C47.4117 33.4734 46.0877 34.8693 44.6811 36.1793C44.7675 34.8008 44.8107 33.4078 44.8107 32.0001C44.8107 30.5925 44.7675 29.1994 44.6811 27.8204ZM40.9755 42.9589C40.5221 45.4455 39.864 47.8905 39.0079 50.2693C36.7772 49.7655 34.588 49.0934 32.4588 48.2585C34.1532 47.3682 35.8481 46.3914 37.5284 45.3288C38.7066 44.5674 39.8556 43.7775 40.9755 42.9589ZM25.5356 48.2585C23.4104 49.104 21.2201 49.7767 18.9866 50.2693C18.1304 47.8905 17.4723 45.4455 17.019 42.9589C18.1248 43.7775 19.2738 44.5674 20.466 45.3142C22.1463 46.3914 23.8412 47.3682 25.5356 48.2585ZM13.3133 36.1793C11.9068 34.8693 10.5833 33.4734 9.34899 32.0001C10.5833 30.5263 11.9068 29.1304 13.3133 27.8204C13.2269 29.1994 13.1837 30.5925 13.1837 32.0001C13.1837 33.4078 13.2269 34.8008 13.3133 36.1793ZM17.019 21.0413C17.4723 18.5542 18.1304 16.1092 18.9866 13.7309C21.2173 14.2342 23.407 14.9063 25.5356 15.7417C23.8412 16.6321 22.1463 17.6088 20.466 18.6715C19.2878 19.4328 18.1388 20.2227 17.019 21.0413ZM37.5144 18.6715C35.8481 17.6088 34.1532 16.6175 32.4443 15.7417C34.5695 14.8962 36.7598 14.2235 38.9939 13.7309C39.8494 16.1092 40.5075 18.5542 40.9614 21.0413C39.8556 20.2227 38.7066 19.4328 37.5144 18.6715ZM6.53424 28.1508C3.48891 23.3247 2.74216 19.0019 4.46568 16.3016C5.84472 14.1472 8.83227 12.9836 12.8678 12.9836C13.9484 12.9881 15.0278 13.0605 16.0994 13.1991H16.128C14.9661 16.5776 14.1577 20.0673 13.7156 23.612C11.5023 25.4584 9.44156 27.4809 7.55365 29.6589C7.19459 29.1708 6.85011 28.6681 6.53424 28.1508ZM16.0854 50.7866C15.0138 50.9257 13.9344 50.9975 12.8538 51.002C8.81768 51.002 5.83014 49.853 4.45166 47.684C2.72814 44.9837 3.47488 40.6609 6.51966 35.8348C6.83552 35.3321 7.18056 34.8149 7.53963 34.3122C9.42697 36.4907 11.4877 38.5127 13.701 40.3591C14.1436 43.9043 14.9521 47.394 16.114 50.772C16.114 50.7866 16.0994 50.7866 16.0854 50.7866ZM37.8589 52.9982C35.4318 58.1688 32.2002 61.1277 28.9972 61.1277C25.7942 61.1277 22.5626 58.1688 20.1356 52.9982C20.1339 52.9875 20.1288 52.9774 20.121 52.9696C23.1719 52.2357 26.1477 51.2214 29.0118 49.9388C31.8726 51.2276 34.8494 52.2425 37.9021 52.9696C37.8735 52.9696 37.8735 52.9836 37.8589 52.9982ZM51.4602 35.8494C54.5055 40.6749 55.2523 44.9983 53.5288 47.6986C51.8052 50.3983 47.5682 51.5333 41.909 50.7866H41.8804C43.0423 47.408 43.8513 43.9183 44.2934 40.3737C46.5068 38.5273 48.5675 36.5047 50.4548 34.3268C50.7998 34.8294 51.1443 35.3321 51.4602 35.8494ZM44.2789 23.6266C43.8368 20.0814 43.0283 16.5917 41.8664 13.2136H41.895C47.5537 12.4809 51.7906 13.6013 53.5142 16.3016C55.2377 19.0019 54.4909 23.3247 51.4462 28.1508C51.1303 28.6535 50.7853 29.1708 50.4262 29.6735C48.5473 27.4916 46.491 25.469 44.2789 23.6266Z" fill="url(#paint0_linear_7221_470)"/>
<defs>
<linearGradient id="paint0_linear_7221_470" x1="29.0016" y1="-2.47038" x2="29.0016" y2="67.1611" gradientUnits="userSpaceOnUse">
<stop stop-color="#00EFD1"/>
<stop offset="1" stop-color="#00ACEA"/>
</linearGradient>
</defs>
</svg>
