<svg width="64" height="64" viewBox="0 0 64 64" fill="none" xmlns="http://www.w3.org/2000/svg">
<path d="M4.54883 31.9992C4.54883 42.8651 10.8637 52.2554 20.0207 56.7053L6.92558 20.8271C5.40237 24.2412 4.54883 28.0194 4.54883 31.9992Z" fill="#3858E9"/>
<path d="M50.5334 30.6141C50.5334 27.2215 49.3147 24.8719 48.2695 23.0432C46.8779 20.7819 45.5735 18.867 45.5735 16.6057C45.5735 14.0823 47.4875 11.7332 50.1834 11.7332C50.3051 11.7332 50.4205 11.7484 50.5391 11.7552C45.655 7.28072 39.1479 4.54883 32.001 4.54883C22.4104 4.54883 13.9726 9.46937 9.06396 16.9223C9.70804 16.9416 10.315 16.9552 10.8306 16.9552C13.702 16.9552 18.1468 16.6068 18.1468 16.6068C19.6267 16.5195 19.8012 18.693 18.3229 18.868C18.3229 18.868 16.8357 19.043 15.1808 19.1297L25.1778 48.8646L31.1855 30.8471L26.9084 19.1287C25.4301 19.042 24.0297 18.867 24.0297 18.867C22.5504 18.7803 22.7238 16.5185 24.2031 16.6057C24.2031 16.6057 28.7367 16.9541 31.4342 16.9541C34.3051 16.9541 38.7504 16.6057 38.7504 16.6057C40.2313 16.5185 40.4053 18.692 38.9265 18.867C38.9265 18.867 37.4362 19.042 35.7844 19.1287L45.7052 48.6384L48.4434 39.4884C49.6302 35.6914 50.5334 32.9642 50.5334 30.6141Z" fill="#3858E9"/>
<path d="M32.4827 34.4004L24.2461 58.334C26.7054 59.0569 29.3062 59.4523 32.0011 59.4523C35.198 59.4523 38.2637 58.8997 41.1174 57.8963C41.0437 57.7787 40.9769 57.6539 40.922 57.5181L32.4827 34.4004Z" fill="#3858E9"/>
<path d="M56.0892 18.8291C56.2073 19.7035 56.2741 20.6422 56.2741 21.6519C56.2741 24.4376 55.7539 27.5691 54.1868 31.4846L45.8013 55.7285C53.9627 50.9693 59.4522 42.1275 59.4522 32.0002C59.4527 27.2275 58.2335 22.7394 56.0892 18.8291Z" fill="#3858E9"/>
<path d="M32.001 0C14.3561 0 0 14.3547 0 31.9992C0 49.6458 14.3561 64 32.001 64C49.6454 64 64.0037 49.6458 64.0037 31.9992C64.0031 14.3547 49.6454 0 32.001 0ZM32.001 62.5332C15.1653 62.5332 1.46732 48.8356 1.46732 31.9992C1.46732 15.1638 15.1647 1.46728 32.001 1.46728C48.8363 1.46728 62.5332 15.1638 62.5332 31.9992C62.5332 48.8356 48.8363 62.5332 32.001 62.5332Z" fill="#3858E9"/>
</svg>
